<svg xmlns="http://www.w3.org/2000/svg" viewBox="0 0 32 32"><title>file_type_haxe</title><path fill="#f68712" d="M16,5.5,5.5,16,16,26.5,26.5,16,16,5.5"/><path fill="#fab20b" d="M2,2,16,5.5,5.5,16,2,2"/><path fill="#f47216" d="M30,2,26.5,16,16,5.5,30,2"/><path fill="#f25c19" d="M30,30,16,26.5,26.5,16,30,30"/><path fill="#f89c0e" d="M2,30,5.5,16,16,26.5,2,30"/><path fill="#fbc707" d="M16,5.5,2,2H9l7,3.5"/><path fill="#fbc707" d="M16,5.5,30,2H23L16,5.5"/><path fill="#f68712" d="M16,26.5,30,30H23l-7-3.5"/><path fill="#f25c19" d="M16,26.5,2,30H9l7-3.5"/><path fill="#fff200" d="M5.5,16,2,30V23l3.5-7"/><path fill="#fff200" d="M5.5,16,2,2V9l3.5,7"/><path fill="#f1471d" d="M26.5,16,30,2V9l-3.5,7"/><path fill="#f1471d" d="M26.5,16,30,30V23l-3.5-7"/></svg>