<svg xmlns="http://www.w3.org/2000/svg" xmlns:xlink="http://www.w3.org/1999/xlink" viewBox="0 0 32 32"><defs><radialGradient id="a" cx="254.124" cy="-806.15" r="11.394" gradientTransform="matrix(1.783, 0.144, 0.098, -1.218, -355.706, -1000.523)" gradientUnits="userSpaceOnUse"><stop offset="0" stop-color="#0663b4"/><stop offset="1" stop-color="#16adff" stop-opacity=".685"/></radialGradient><linearGradient id="b" x1="255.24" x2="255.24" y1="-1199.517" y2="-1195.084" gradientTransform="matrix(1, 0, 0, -1, -250.518, -1191.956)" gradientUnits="userSpaceOnUse"><stop offset="0" stop-color="#047fc7"/><stop offset="1" stop-color="#11abe8"/></linearGradient></defs><title>file_type_nuget</title><rect width="23.722" height="23.722" x="6.278" y="5.85" fill="#c7ebf1" rx="7.7" ry="7.7"/><rect style="isolation:isolate" width="22.789" height="22.556" x="6.744" y="6.55" fill="url(#a)" opacity=".823" rx="7.294" ry="7.294"/><rect width="19.427" height="19.427" x="8.037" y="8.45" fill="#016fd2" rx="6.087" ry="6.087"/><path fill="#5fffe6" d="M29.505,13.284A7.289,7.289,0,0,0,22.239,6.55h-8.2a7.294,7.294,0,0,0-7.294,7.294v7.968c0,.165.014.326.025.489.521.028,1.046.043,1.574.043A29.191,29.191,0,0,0,29.505,13.284Z" opacity=".173"/><path fill="#fff" d="M26.5,21.872a4.978,4.978,0,1,1-9.956,0v0a4.978,4.978,0,1,1,9.956,0Z"/><path fill="#fff" d="M15.222,12.772a2.878,2.878,0,0,1-5.756,0v0a2.878,2.878,0,0,1,5.756,0Z"/><path fill="#cbedf2" fill-opacity=".925" d="M7.444,5.15A2.722,2.722,0,1,1,2,5.15H2a2.722,2.722,0,1,1,5.444,0Z"/><path fill="url(#b)" d="M6.822,5.15a2.1,2.1,0,0,1-4.2,0h0a2.1,2.1,0,0,1,4.2,0Z"/></svg>