<svg xmlns="http://www.w3.org/2000/svg" viewBox="0 0 32 32"><title>file_type_sbt</title><circle cx="16" cy="16" r="14" fill="#0e3a51"/><path fill="#15a9ce" d="M12.64,15.72a1.625,1.625,0,0,0,1.624,1.624H29.932C29.974,16.9,30,16.454,30,16a14.049,14.049,0,0,0-.144-1.9H14.264A1.625,1.625,0,0,0,12.64,15.72Z"/><path fill="#92d13d" d="M17.624,8.795a1.624,1.624,0,1,0,0,3.248h11.8a13.9,13.9,0,0,0-1.437-3.248Z"/><path fill="#de3423" d="M29.572,19.379H10.9a1.624,1.624,0,0,0,0,3.248H28.333A13.91,13.91,0,0,0,29.572,19.379Z"/></svg>