<svg xmlns="http://www.w3.org/2000/svg" viewBox="0 0 32 32"><title>file_type_gitlab</title><polygon fill="#e24329" points="16 28.896 16 28.896 21.156 13.029 10.844 13.029 16 28.896"/><polygon fill="#fc6d26" points="16 28.896 10.844 13.029 3.619 13.029 16 28.896"/><path fill="#fca326" d="M3.619,13.029h0L2.052,17.851a1.067,1.067,0,0,0,.388,1.193L16,28.9,3.619,13.029Z"/><path fill="#e24329" d="M3.619,13.029h7.225L7.739,3.473a.534.534,0,0,0-1.015,0L3.619,13.029Z"/><polygon fill="#fc6d26" points="16 28.896 21.156 13.029 28.381 13.029 16 28.896"/><path fill="#fca326" d="M28.381,13.029h0l1.567,4.822a1.067,1.067,0,0,1-.388,1.193L16,28.9,28.381,13.029Z"/><path fill="#e24329" d="M28.381,13.029H21.156l3.105-9.557a.534.534,0,0,1,1.015,0l3.105,9.557Z"/></svg>