<svg xmlns="http://www.w3.org/2000/svg" viewBox="0 0 32 32"><title>file_type_tfs</title><path fill="#68217a" d="M10.175,18.342a8.171,8.171,0,1,1,8.171-8.171A8.181,8.181,0,0,1,10.175,18.342Zm0-11.673a3.5,3.5,0,1,0,3.5,3.5A3.506,3.506,0,0,0,10.175,6.669Z"/><path fill="#68217a" d="M28.089,24.023a4.2,4.2,0,1,1-1.231-2.971A4.189,4.189,0,0,1,28.089,24.023Z"/><path fill="#68217a" d="M30,6.21a4.2,4.2,0,1,1-1.231-2.971A4.189,4.189,0,0,1,30,6.21Z"/><path fill="#68217a" d="M10.416,25.8a4.2,4.2,0,1,1-1.231-2.971A4.189,4.189,0,0,1,10.416,25.8Z"/><rect width="8.189" height="2.801" x="15.758" y="6.37" fill="#68217a" transform="translate(-1.301 5.119) rotate(-14.233)"/><rect width="7.601" height="2.802" x="3.834" y="18.591" fill="#68217a" transform="translate(-13.621 22.479) rotate(-75.774)"/><rect width="2.801" height="9.292" x="17.171" y="14.085" fill="#68217a" transform="translate(-7.805 18.485) rotate(-44.709)"/></svg>