<svg xmlns="http://www.w3.org/2000/svg" viewBox="0 0 32 32"><title>folder_type_haxelib_opened</title><path fill="#dbab7b" d="M27.4,5.5H18.2L16.1,9.7H4.3V26.5H29.5V5.5Zm0,18.7H6.6V11.8H27.4Zm0-14.5H19.2l1-2.1h7.1V9.7Z"/><polygon fill="#dbab7b" points="25.7 13.7 .5 13.7 4.3 26.5 29.5 26.5 25.7 13.7"/><path fill="#f68712" d="M20.5,12.625,12.625,20.5,20.5,28.375,28.375,20.5,20.5,12.625"/><path fill="#fab20b" d="M10,10l10.5,2.625L12.625,20.5,10,10"/><path fill="#f47216" d="M31,10,28.375,20.5,20.5,12.625,31,10"/><path fill="#f25c19" d="M31,31,20.5,28.375,28.375,20.5,31,31"/><path fill="#f89c0e" d="M10,31l2.625-10.5L20.5,28.375,10,31"/><path fill="#fbc707" d="M20.5,12.625,10,10h5.25l5.25,2.625"/><path fill="#fbc707" d="M20.5,12.625,31,10H25.75L20.5,12.625"/><path fill="#f68712" d="M20.5,28.375,31,31H25.75L20.5,28.375"/><path fill="#f25c19" d="M20.5,28.375,10,31h5.25l5.25-2.625"/><path fill="#fff200" d="M12.625,20.5,10,31V25.75l2.625-5.25"/><path fill="#fff200" d="M12.625,20.5,10,10v5.25l2.625,5.25"/><path fill="#f1471d" d="M28.375,20.5,31,10v5.25L28.375,20.5"/><path fill="#f1471d" d="M28.375,20.5,31,31V25.75L28.375,20.5"/></svg>