<svg xmlns="http://www.w3.org/2000/svg" viewBox="0 0 32 32"><title>folder_type_elasticbeanstalk</title><path fill="#c17e53" d="M27.5,5.5H18.2L16.1,9.7H4.4V26.5H29.6V5.5Zm0,4.2H19.3l1.1-2.1h7.1Z"/><polygon fill="#9d5025" points="20.8 11.3 20.8 20.5 19.73 20.5 19.73 29.165 23.4 31 25.617 20.5 23.4 10 20.8 11.3"/><polygon fill="#f58536" points="23.4 10 23.4 20.5 23.4 31 26 29.7 26 20.5 27.07 20.5 27.07 11.835 23.4 10"/><polygon fill="#6b3a19" points="30.969 17.824 26.331 18.257 24.802 18.079 29.644 13.135 30.969 17.824"/><polygon fill="#f58536" points="29.644 13.135 30.969 13.797 30.969 17.824 29.644 17.544 29.644 13.135"/><polygon fill="#9d5025" points="24.802 18.079 29.644 17.544 29.644 13.135 24.802 14.434 24.802 18.079"/><polygon fill="#fbbf93" points="15.831 23.176 20.469 22.743 21.998 22.921 17.156 27.865 15.831 23.176"/><polygon fill="#9d5025" points="17.156 27.865 15.831 27.203 15.831 23.176 17.156 23.456 17.156 27.865"/><polygon fill="#f58536" points="21.998 22.921 17.156 23.456 17.156 27.865 21.998 26.566 21.998 22.921"/></svg>